<svg width="1024" height="1024" viewBox="0 0 1024 1024" fill="none" xmlns="http://www.w3.org/2000/svg">
<mask id="mask0_1_2" style="mask-type:alpha" maskUnits="userSpaceOnUse" x="670" y="395" width="216" height="217">
<rect x="670" y="395.264" width="216" height="216" fill="#D9D9D9"/>
</mask>
<g mask="url(#mask0_1_2)">
<path d="M771.946 466.593L801.704 409.035C814.763 413.127 826.248 420.183 836.158 430.202C846.068 440.22 853.511 452.35 858.486 466.593H771.946ZM746.564 491.026L717.076 433.468C724.938 424.856 734.07 418.003 744.47 412.908C754.871 407.812 766.048 405.264 778 405.264C779.877 405.264 781.913 405.381 784.108 405.615C786.303 405.848 788.409 406.121 790.425 406.433L746.564 491.026ZM693.816 527.697C692.907 523.781 692.211 519.809 691.726 515.78C691.242 511.753 691 507.581 691 503.264C691 491.758 692.65 480.92 695.95 470.749C699.249 460.579 703.804 451.354 709.615 443.074L753.061 527.697H693.816ZM754.504 597.493C741.445 593.401 729.925 586.345 719.946 576.326C709.967 566.308 702.489 554.178 697.514 539.935H783.846L754.504 597.493ZM778 601.264C775.768 601.264 773.659 601.152 771.67 600.927C769.682 600.705 767.72 600.437 765.783 600.126L809.318 515.502L838.69 573.191C830.827 581.803 821.735 588.635 811.412 593.688C801.09 598.739 789.952 601.264 778 601.264ZM846.385 563.454L802.939 478.831H862.184C863.014 482.747 863.691 486.72 864.216 490.748C864.739 494.775 865 498.947 865 503.264C865 514.614 863.325 525.408 859.974 535.645C856.623 545.884 852.093 555.154 846.385 563.454Z" fill="url(#paint0_linear_1_2)"/>
</g>
<path d="M238.672 409.768H186.448V644.264H127.568V409.768H94.288V362.152H127.568V342.184C127.568 309.757 136.101 286.205 153.168 271.528C170.576 256.509 197.712 249 234.576 249V297.64C216.827 297.64 204.368 301.053 197.2 307.88C190.032 314.365 186.448 325.8 186.448 342.184V362.152H238.672V409.768Z" fill="white"/>
<path d="M361.568 648.872C334.944 648.872 310.88 642.899 289.376 630.952C267.872 618.664 250.976 601.597 238.688 579.752C226.4 557.565 220.256 531.965 220.256 502.952C220.256 474.28 226.571 448.851 239.2 426.664C251.829 404.477 269.067 387.411 290.912 375.464C312.757 363.517 337.163 357.544 364.128 357.544C391.093 357.544 415.499 363.517 437.344 375.464C459.189 387.411 476.427 404.477 489.056 426.664C501.685 448.851 508 474.28 508 502.952C508 531.624 501.515 557.053 488.544 579.24C475.573 601.427 457.824 618.664 435.296 630.952C413.109 642.899 388.533 648.872 361.568 648.872ZM361.568 598.184C376.587 598.184 390.581 594.6 403.552 587.432C416.864 580.264 427.616 569.512 435.808 555.176C444 540.84 448.096 523.432 448.096 502.952C448.096 482.472 444.171 465.235 436.32 451.24C428.469 436.904 418.059 426.152 405.088 418.984C392.117 411.816 378.123 408.232 363.104 408.232C348.085 408.232 334.091 411.816 321.12 418.984C308.491 426.152 298.421 436.904 290.912 451.24C283.403 465.235 279.648 482.472 279.648 502.952C279.648 533.331 287.328 556.883 302.688 573.608C318.389 589.992 338.016 598.184 361.568 598.184Z" fill="white"/>
<path d="M582.596 409.768V565.928C582.596 576.509 584.985 584.189 589.764 588.968C594.884 593.405 603.417 595.624 615.364 595.624H651.204V644.264H605.124C578.841 644.264 558.703 638.12 544.708 625.832C530.713 613.544 523.716 593.576 523.716 565.928V409.768H490.436V362.152H523.716V292.008H582.596V362.152H651.204V409.768H582.596Z" fill="white"/>
<path d="M776.168 648.872C749.544 648.872 725.48 642.899 703.976 630.952C682.472 618.664 665.576 601.597 653.288 579.752C641 557.565 634.856 531.965 634.856 502.952C634.856 474.28 641.171 448.851 653.8 426.664C666.429 404.477 683.667 387.411 705.512 375.464C727.357 363.517 751.763 357.544 778.728 357.544C805.693 357.544 830.099 363.517 851.944 375.464C873.789 387.411 891.027 404.477 903.656 426.664C916.285 448.851 922.6 474.28 922.6 502.952C922.6 531.624 916.115 557.053 903.144 579.24C890.173 601.427 872.424 618.664 849.896 630.952C827.709 642.899 803.133 648.872 776.168 648.872ZM776.168 598.184C791.187 598.184 805.181 594.6 818.152 587.432C831.464 580.264 842.216 569.512 850.408 555.176C858.6 540.84 862.696 523.432 862.696 502.952C862.696 482.472 858.771 465.235 850.92 451.24C843.069 436.904 832.659 426.152 819.688 418.984C806.717 411.816 792.723 408.232 777.704 408.232C762.685 408.232 748.691 411.816 735.72 418.984C723.091 426.152 713.021 436.904 705.512 451.24C698.003 465.235 694.248 482.472 694.248 502.952C694.248 533.331 701.928 556.883 717.288 573.608C732.989 589.992 752.616 598.184 776.168 598.184Z" fill="white"/>
<path d="M492.329 764.991C489.019 764.271 486.193 763.133 483.851 761.579C481.572 759.994 479.935 758.185 478.939 756.152C477.955 754.077 477.745 751.965 478.307 749.817L487.319 751.779C487.007 753.3 487.456 754.737 488.664 756.09C489.938 757.411 491.745 758.326 494.087 758.836C496.531 759.368 498.535 759.396 500.098 758.919C501.725 758.41 502.731 757.54 503.116 756.307C503.527 754.989 503.069 753.845 501.74 752.875C500.463 751.916 498.314 750.699 495.294 749.225C492.363 747.815 490.011 746.554 488.238 745.442C486.464 744.329 485.058 742.911 484.02 741.187C483.032 739.474 482.897 737.469 483.614 735.174C484.198 733.303 485.391 731.747 487.192 730.505C489.007 729.22 491.276 728.398 493.999 728.037C496.773 727.687 499.764 727.861 502.971 728.56C507.758 729.601 511.283 731.458 513.548 734.131C515.878 736.771 516.6 739.857 515.715 743.387L507.008 741.492C507.346 739.886 506.974 738.465 505.892 737.231C504.809 735.996 503.096 735.124 500.754 734.614C498.463 734.116 496.593 734.095 495.146 734.551C493.698 735.008 492.788 735.832 492.417 737.022C492.125 737.957 492.286 738.832 492.902 739.647C493.518 740.462 494.351 741.188 495.403 741.826C496.468 742.421 498.059 743.244 500.178 744.295C503.021 745.64 505.297 746.885 507.006 748.029C508.779 749.141 510.166 750.532 511.167 752.203C512.168 753.874 512.342 755.841 511.69 758.105C511.066 760.103 509.846 761.744 508.031 763.029C506.216 764.314 503.947 765.136 501.225 765.497C498.553 765.869 495.587 765.7 492.329 764.991Z" fill="url(#paint1_linear_1_2)"/>
<path d="M571.393 736.851C574.802 737.079 577.788 737.873 580.35 739.234C582.964 740.599 584.92 742.493 586.219 744.915C587.57 747.341 588.088 750.196 587.773 753.48L585.726 774.828L576.836 774.234L578.775 754.003C579.086 750.763 578.353 748.224 576.576 746.386C574.803 744.505 572.238 743.452 568.881 743.228C565.524 743.003 562.765 743.7 560.604 745.319C558.5 746.897 557.292 749.306 556.982 752.547L555.042 772.778L546.152 772.184L548.091 751.953C548.402 748.712 547.669 746.173 545.892 744.336C544.119 742.454 541.554 741.402 538.197 741.177C534.84 740.953 532.081 741.65 529.92 743.268C527.816 744.847 526.608 747.256 526.298 750.496L524.358 770.727L515.389 770.128L518.859 733.935L527.828 734.535L527.431 738.673C529.042 737.282 531.016 736.246 533.351 735.565C535.686 734.884 538.139 734.629 540.709 734.801C544.171 735.032 547.207 735.852 549.816 737.26C552.426 738.669 554.354 740.582 555.601 743.001C557.122 740.899 559.333 739.306 562.235 738.222C565.141 737.094 568.194 736.637 571.393 736.851Z" fill="url(#paint2_linear_1_2)"/>
<path d="M590.08 755.574C589.591 751.951 590.046 748.659 591.446 745.698C592.899 742.731 595.065 740.339 597.943 738.521C600.868 736.654 604.213 735.543 607.978 735.189C611.377 734.869 614.408 735.158 617.071 736.057C619.78 736.907 622.005 738.09 623.746 739.606L623.038 734.368L632.058 733.518L636.931 769.598L627.912 770.447L627.186 765.078C625.9 766.923 624.026 768.536 621.565 769.917C619.104 771.299 616.2 772.147 612.854 772.462C609.141 772.811 605.637 772.346 602.339 771.064C599.036 769.74 596.278 767.745 594.065 765.08C591.898 762.366 590.569 759.197 590.08 755.574ZM625.47 752.375C625.134 749.886 624.215 747.785 622.712 746.069C621.262 744.349 619.479 743.102 617.362 742.329C615.245 741.556 613.037 741.278 610.736 741.494C608.435 741.711 606.356 742.393 604.499 743.54C602.636 744.644 601.201 746.172 600.194 748.123C599.233 750.026 598.92 752.222 599.256 754.71C599.593 757.198 600.489 759.325 601.945 761.088C603.453 762.847 605.269 764.135 607.391 764.952C609.56 765.721 611.769 765.999 614.018 765.787C616.318 765.571 618.397 764.889 620.254 763.741C622.112 762.594 623.518 761.047 624.473 759.1C625.474 757.105 625.807 754.863 625.47 752.375Z" fill="url(#paint3_linear_1_2)"/>
<path d="M647.315 735.602C648.091 733.555 649.391 731.834 651.215 730.439C653.078 728.991 655.469 727.981 658.389 727.409L660.517 734.979L658.288 735.416C654.856 736.088 652.448 737.327 651.064 739.132C649.73 740.928 649.569 743.621 650.579 747.214L655.807 765.818L647.047 767.534L637.113 732.186L645.873 730.47L647.315 735.602Z" fill="url(#paint4_linear_1_2)"/>
<path d="M678.635 731.676L686.084 750.788C686.589 752.083 687.306 752.927 688.234 753.322C689.196 753.661 690.553 753.593 692.304 753.117L697.558 751.69L699.879 757.642L693.124 759.478C689.271 760.524 686.026 760.574 683.388 759.628C680.75 758.681 678.772 756.516 677.453 753.133L670.004 734.021L665.125 735.346L662.854 729.519L667.732 728.194L664.386 719.609L673.018 717.264L676.364 725.849L686.421 723.116L688.692 728.944L678.635 731.676Z" fill="url(#paint5_linear_1_2)"/>
<defs>
<linearGradient id="paint0_linear_1_2" x1="691" y1="405.264" x2="852.5" y2="589.264" gradientUnits="userSpaceOnUse">
<stop stop-color="#8C65FF"/>
<stop offset="1" stop-color="#E695FF"/>
</linearGradient>
<linearGradient id="paint1_linear_1_2" x1="478" y1="717.264" x2="496.581" y2="809.179" gradientUnits="userSpaceOnUse">
<stop stop-color="#8C65FF"/>
<stop offset="1" stop-color="#E695FF"/>
</linearGradient>
<linearGradient id="paint2_linear_1_2" x1="478" y1="717.264" x2="496.581" y2="809.179" gradientUnits="userSpaceOnUse">
<stop stop-color="#8C65FF"/>
<stop offset="1" stop-color="#E695FF"/>
</linearGradient>
<linearGradient id="paint3_linear_1_2" x1="478" y1="717.264" x2="496.581" y2="809.179" gradientUnits="userSpaceOnUse">
<stop stop-color="#8C65FF"/>
<stop offset="1" stop-color="#E695FF"/>
</linearGradient>
<linearGradient id="paint4_linear_1_2" x1="478" y1="717.264" x2="496.581" y2="809.179" gradientUnits="userSpaceOnUse">
<stop stop-color="#8C65FF"/>
<stop offset="1" stop-color="#E695FF"/>
</linearGradient>
<linearGradient id="paint5_linear_1_2" x1="478" y1="717.264" x2="496.581" y2="809.179" gradientUnits="userSpaceOnUse">
<stop stop-color="#8C65FF"/>
<stop offset="1" stop-color="#E695FF"/>
</linearGradient>
</defs>
</svg>
